# xmcd
#
# Track frame offsets: 
#        150
#        13748
#        32565
#        52038
#        68825
#        88198
#        99473
#        116218
#        130895
#        143910
#        161375
#        179855
#        194288
#        206428
#        216350
#        238405
#        247015
#
# Disc length: 3466 seconds
#
# Revision: 1
# Processed by: cddbd v1.5.2PL0 Copyright (c) Steve Scherf et al.
# Submitted via: ExactAudioCopy v1.0b3
#
DISCID=070d8811
DTITLE=Kukuruza - A Russian Country Bluegrass Band
DYEAR=1992
DGENRE=Country
TTITLE0=Porushka-Paranya
TTITLE1=If I Know Where
TTITLE2=A Lucky Man
TTITLE3=Steppe
TTITLE4=Asphalt Blues
TTITLE5=White Flower In Bluegrass
TTITLE6=Stenka Razin
TTITLE7=Johnny B. Goode
TTITLE8=Sally Goodwin
TTITLE9=Za Kamen
TTITLE10=Gentle River
TTITLE11=Emphysema Two-Step
TTITLE12=Daroga
TTITLE13=Govorushka
TTITLE14=White Song
TTITLE15=Can-Can
TTITLE16=Nyet, Nye Nada
EXTD=
EXTT0=
EXTT1=
EXTT2=
EXTT3=
EXTT4=
EXTT5=
EXTT6=
EXTT7=
EXTT8=
EXTT9=
EXTT10=
EXTT11=
EXTT12=
EXTT13=
EXTT14=
EXTT15=
EXTT16=
PLAYORDER=
